<svg width="40" height="40" viewBox="0 0 40 40" fill="none" xmlns="http://www.w3.org/2000/svg">
<g opacity="0.9">
<mask id="mask0_6_1200" style="mask-type:alpha" maskUnits="userSpaceOnUse" x="4" y="4" width="32" height="33">
<path fill-rule="evenodd" clip-rule="evenodd" d="M20 4H4V20V37H20H36V20H20V4Z" fill="#C4C4C4"/>
</mask>
<g mask="url(#mask0_6_1200)">
<circle cx="20" cy="21" r="14.5" stroke="url(#paint0_linear_6_1200)" stroke-width="3"/>
</g>
<path fill-rule="evenodd" clip-rule="evenodd" d="M19.6001 11.8826C19.6001 11.9292 19.6545 11.9547 19.6903 11.9248L25.4987 7.08451C25.5515 7.04053 25.5515 6.95947 25.4987 6.9155L19.6903 2.07518C19.6545 2.04532 19.6001 2.0708 19.6001 2.11743L19.6001 11.8826Z" fill="white"/>
<path fill-rule="evenodd" clip-rule="evenodd" d="M25.6001 11.8826C25.6001 11.9292 25.6545 11.9547 25.6903 11.9248L31.4987 7.08451C31.5515 7.04053 31.5515 6.95947 31.4987 6.9155L25.6903 2.07518C25.6545 2.04532 25.6001 2.0708 25.6001 2.11743L25.6001 11.8826Z" fill="white"/>
<path d="M16.9331 27H15.0972V19.625C15.0972 18.7448 15.118 18.0469 15.1597 17.5312C15.0399 17.6562 14.8915 17.7943 14.7144 17.9453C14.5425 18.0964 13.9592 18.5755 12.9644 19.3828L12.0425 18.2188L15.4019 15.5781H16.9331V27ZM27.4653 21.2891C27.4653 23.2734 27.145 24.7474 26.5044 25.7109C25.869 26.6745 24.895 27.1562 23.5825 27.1562C22.3117 27.1562 21.3481 26.6589 20.6919 25.6641C20.0356 24.6693 19.7075 23.2109 19.7075 21.2891C19.7075 19.2734 20.0252 17.7891 20.6606 16.8359C21.3012 15.8776 22.2752 15.3984 23.5825 15.3984C24.8585 15.3984 25.8247 15.8984 26.4809 16.8984C27.1372 17.8984 27.4653 19.362 27.4653 21.2891ZM21.5669 21.2891C21.5669 22.8464 21.7257 23.9583 22.0434 24.625C22.3664 25.2917 22.8794 25.625 23.5825 25.625C24.2856 25.625 24.7986 25.2865 25.1216 24.6094C25.4497 23.9323 25.6137 22.8255 25.6137 21.2891C25.6137 19.7578 25.4497 18.651 25.1216 17.9688C24.7986 17.2812 24.2856 16.9375 23.5825 16.9375C22.8794 16.9375 22.3664 17.2734 22.0434 17.9453C21.7257 18.6172 21.5669 19.7318 21.5669 21.2891Z" fill="white"/>
</g>
<defs>
<linearGradient id="paint0_linear_6_1200" x1="20" y1="18" x2="36" y2="18" gradientUnits="userSpaceOnUse">
<stop stop-color="white"/>
<stop offset="1" stop-color="white" stop-opacity="0"/>
</linearGradient>
</defs>
</svg>
