<svg width="40" height="40" viewBox="0 0 40 40" fill="none" xmlns="http://www.w3.org/2000/svg">
<g opacity="0.9">
<path fill-rule="evenodd" clip-rule="evenodd" d="M20.1834 31.8196C20.2694 31.8912 20.3999 31.8301 20.3999 31.7182L20.3999 8.28185C20.3999 8.16994 20.2694 8.1088 20.1834 8.18044L13.1779 14.0183H8C6.34315 14.0183 5 15.3615 5 17.0183V23.0183C5 24.6752 6.34315 26.0183 8 26.0183H13.2219L20.1834 31.8196Z" fill="url(#paint0_linear_6_1224)"/>
<path d="M30.54 20L34 23.46L32.46 25L29 21.54L25.54 25L24 23.46L27.46 20L24 16.54L25.54 15L29 18.46L32.46 15L34 16.54L30.54 20Z" fill="url(#paint1_linear_6_1224)"/>
</g>
<defs>
<linearGradient id="paint0_linear_6_1224" x1="12.7" y1="17.7781" x2="21" y2="39.4999" gradientUnits="userSpaceOnUse">
<stop stop-color="white"/>
<stop offset="1" stop-color="white" stop-opacity="0"/>
</linearGradient>
<linearGradient id="paint1_linear_6_1224" x1="29" y1="19.0625" x2="31.4563" y2="28.9558" gradientUnits="userSpaceOnUse">
<stop stop-color="white"/>
<stop offset="1" stop-color="white" stop-opacity="0"/>
</linearGradient>
</defs>
</svg>
